<svg id="Capa_1" enable-background="new 0 0 512.097 512.097" height="512" viewBox="0 0 512.097 512.097" width="512" xmlns="http://www.w3.org/2000/svg"><g><circle cx="256.049" cy="256.049" fill="#f9f9f9" r="240"/><path d="m256.049 16.049c132.55 0 240 107.45 240 240s-107.45 240-240 240z" fill="#f4ead8"/><path d="m352.049 145.049c-8.284 0-15 6.716-15 15v24c0 8.284 6.716 15 15 15s15-6.716 15-15v-24c0-8.284-6.716-15-15-15z" fill="#bee75e"/><path d="m423.049 214.049v124c0 24.81-20.19 45-45 45h-195c0-93.95-94-94-94-94v-75c0-24.81 20.19-45 45-45h55.85l4.68-11.71c6.87-17.18 23.27-28.29 41.78-28.29h39.38c18.51 0 34.91 11.11 41.78 28.3l4.68 11.7h55.85c24.81 0 45 20.19 45 45z" fill="#0d8ebc"/><path d="m423.049 214.049v124c0 24.81-20.19 45-45 45h-122v-254h19.69c18.51 0 34.91 11.11 41.78 28.3l4.68 11.7h55.85c24.81 0 45 20.19 45 45z" fill="#0a617d"/><path d="m256.049 209.049c-25.92 0-47 21.08-47 47s21.08 47 47 47 47-21.08 47-47-21.08-47-47-47z" fill="#b1d5f1"/><path d="m256.049 209.049c25.92 0 47 21.08 47 47s-21.08 47-47 47z" fill="#989dec"/><path d="m168.049 289.049h-79v49c0 24.853 20.147 45 45 45h49v-79c0-8.285-6.716-15-15-15z" fill="#0a617d"/><path d="m366.978 238.578c-.873-8.58-8.799-14.945-17.86-13.24-8.147 1.691-13.332 9.391-11.78 17.64 1.669 8.044 9.279 13.345 17.64 11.78 7.99-1.666 12.757-8.956 12-16.18z" fill="#f9f9f9"/><path d="m436.859 75.239c-100.189-100.21-261.127-100.39-361.51-.11-.04.04-.08.07-.12.1-.03.04-.06.08-.1.12-100.151 100.254-100.227 261.194.11 361.51 100.188 100.209 261.125 100.391 361.51.11.04-.04.08-.07.12-.1.03-.04.06-.08.1-.12 100.15-100.254 100.227-261.194-.11-361.51zm-180.81 406.81c-124.62 0-226-101.38-226-226 0-56.92 21.16-108.99 56.02-148.77 8.485 8.485 309.625 309.625 318.75 318.75-39.78 34.86-91.85 56.02-148.77 56.02zm169.98-77.23-318.75-318.75c39.78-34.86 91.85-56.02 148.77-56.02 124.62 0 226 101.38 226 226 0 56.92-21.16 108.99-56.02 148.77z" fill="#ff6378"/><path d="m512.049 256.049c0 141.221-115.338 256-256 256v-30c56.92 0 108.99-21.16 148.77-56.02l-148.77-148.77v-42.42l169.98 169.98c34.86-39.78 56.02-91.85 56.02-148.77 0-124.62-101.38-226-226-226v-30c140.966 0 256 115.055 256 256z" fill="#d0004f"/></g></svg>